<?xml version="1.0" encoding="utf-8"?>
<!-- Generator: Adobe Illustrator 25.2.1, SVG Export Plug-In . SVG Version: 6.00 Build 0)  -->
<svg version="1.1" id="Layer_1" xmlns="http://www.w3.org/2000/svg" xmlns:xlink="http://www.w3.org/1999/xlink" x="0px" y="0px"
	 viewBox="0 0 30 30" style="enable-background:new 0 0 30 30;" xml:space="preserve">
<style type="text/css">
	.st0{fill:#FAFAFA;}
</style>
<path class="st0" d="M3.2,26.1C6.1,23.6,5,21,5,21l7,2c0,0-3.7,3.7-8.4,4L3.2,26.1z"/>
<circle class="st0" cx="3.5" cy="26.5" r="0.5"/>
<path class="st0" d="M15,3C7.8,3,2,7.9,2,14s5.8,11,13,11s13-4.9,13-11S22.2,3,15,3z M16,20h-2v-7h2V20z M15,10.5
	c-0.8,0-1.5-0.7-1.5-1.5s0.7-1.5,1.5-1.5s1.5,0.7,1.5,1.5S15.8,10.5,15,10.5z"/>
</svg>
