<?xml version="1.0" encoding="utf-8"?>
<!-- Generator: Adobe Illustrator 25.2.1, SVG Export Plug-In . SVG Version: 6.00 Build 0)  -->
<svg version="1.1" id="Layer_1" xmlns="http://www.w3.org/2000/svg" xmlns:xlink="http://www.w3.org/1999/xlink" x="0px" y="0px"
	 viewBox="0 0 200 200" style="enable-background:new 0 0 200 200;" xml:space="preserve">
<style type="text/css">
	.st0{fill:#FC85AA;}
</style>
<path class="st0" d="M136.2,72.3c-17.1,0.9-32,6.1-44.1,17.8c-12.2,11.8-17.8,26.3-16.2,44.3c-6.7-0.8-12.8-1.7-18.9-2.3
	c-2.1-0.2-4.6,0.1-6.4,1.1c-5.9,3.4-11.6,7.1-18.4,11.4c1.2-5.6,2-10.5,3.5-15.2c1-3.5,0.6-5.4-2.6-7.7
	C12.5,107.2,3.9,85.5,10.3,63.2C16.3,42.5,31,30,51,23.5c27.3-8.9,58,0.2,74.6,21.8C131.6,53.1,135.3,61.9,136.2,72.3z M57.5,65.3
	c0.2-4.1-3.4-7.8-7.6-7.9c-4.3-0.1-7.8,3.2-8,7.4c-0.1,4.3,3.2,7.7,7.5,7.9C53.8,72.8,57.4,69.5,57.5,65.3z M98.6,57.5
	c-4.2,0.1-7.8,3.7-7.7,7.8c0.1,4.3,3.6,7.6,7.9,7.5c4.4-0.1,7.7-3.4,7.6-7.8C106.4,60.7,102.9,57.4,98.6,57.5z"/>
<path class="st0" d="M174.7,178.9c-5.4-2.4-10.4-6-15.7-6.6c-5.3-0.6-10.8,2.5-16.3,3.1c-16.8,1.7-31.8-3-44.2-14.4
	c-23.6-21.8-20.2-55.3,7.1-73.2c24.3-15.9,59.8-10.6,76.9,11.5c14.9,19.2,13.2,44.8-5,61c-5.3,4.7-7.2,8.5-3.8,14.7
	C174.2,176.1,174.3,177.5,174.7,178.9z M113,119.2c3.4,0,6.3-2.7,6.4-6.1c0.1-3.6-2.8-6.6-6.4-6.6c-3.6,0-6.6,3.1-6.4,6.6
	C106.7,116.5,109.6,119.2,113,119.2z M152.8,106.5c-3.3,0-6.2,2.7-6.3,6.1c-0.1,3.6,2.7,6.6,6.2,6.6c3.5,0,6.2-2.6,6.3-6
	C159.1,109.5,156.3,106.5,152.8,106.5z"/>
</svg>
