<?xml version="1.0" encoding="utf-8"?>
<!-- Generator: Adobe Illustrator 25.2.1, SVG Export Plug-In . SVG Version: 6.00 Build 0)  -->
<svg version="1.1" id="图层_1" xmlns="http://www.w3.org/2000/svg" xmlns:xlink="http://www.w3.org/1999/xlink" x="0px" y="0px"
	 viewBox="0 0 200 200" style="enable-background:new 0 0 200 200;" xml:space="preserve">
<style type="text/css">
	.st0{fill:#FC85AA;}
</style>
<path class="st0" d="M167.9,121.7c-1.8-5.5-3.7-10.9-5.8-16.2l-7.8-19.3c0-0.2,0.1-4,0.1-6c0-33-15.7-66.1-54.4-66.1
	S45.6,47.3,45.6,80.3c0,2,0.1,5.8,0.1,6l-7.8,19.3c-2.1,5.5-4.2,11.3-5.8,16.2c-7.4,23.5-5,33.2-3.2,33.4
	c3.9,0.5,15.2-17.7,15.2-17.7c0,10.5,5.5,24.2,17.3,34.1c-4.4,1.3-9.8,3.4-13.3,6c-3.1,2.3-2.7,4.6-2.2,5.6
	c2.5,4.1,42.5,2.6,54.1,1.3c11.6,1.3,51.6,2.8,54.1-1.4c0.6-0.9,1-3.3-2.2-5.6c-3.5-2.5-8.9-4.6-13.3-6
	c11.8-9.9,17.3-23.6,17.3-34.1c0,0,11.3,18.1,15.2,17.7C172.9,154.9,175.3,145.2,167.9,121.7"/>
</svg>
