<?xml version="1.0" encoding="utf-8"?>
<!-- Generator: Adobe Illustrator 25.2.1, SVG Export Plug-In . SVG Version: 6.00 Build 0)  -->
<svg version="1.1" id="图层_1" xmlns="http://www.w3.org/2000/svg" xmlns:xlink="http://www.w3.org/1999/xlink" x="0px" y="0px"
	 viewBox="0 0 512 512" style="enable-background:new 0 0 512 512;" xml:space="preserve">
<style type="text/css">
	.st0{fill:#FAFAFA;}
</style>
<path class="st0" d="M330.9,310.5H180.3c-11.2,0-20.4,9.2-20.4,20.4s9.2,20.4,20.4,20.4h150c11.2,0,20.4-9.2,20.4-20.4
	S342.2,310.5,330.9,310.5z M187.1,242.4c15.2,0,27.3-12.1,27.3-27.2s-12.1-27.2-27.3-27.2c-15.1,0-27.2,12.1-27.2,27.2
	S172.8,242.4,187.1,242.4z M324.1,187.9c-15.2,0-27.3,12.1-27.3,27.2s12.1,27.2,27.3,27.2c15.1,0,27.2-12.1,27.2-27.2
	S339.2,187.9,324.1,187.9z M256,38C135.6,38,38,135.6,38,256s97.6,218,218,218s218-97.6,218-218S376.4,38,256,38z M256,433.1
	c-97.7,0-177.1-79.5-177.1-177.1S158.3,78.9,256,78.9S433.1,158.3,433.1,256S353.7,433.1,256,433.1z"/>
</svg>
