<?xml version="1.0" encoding="utf-8"?>
<!-- Generator: Adobe Illustrator 25.2.1, SVG Export Plug-In . SVG Version: 6.00 Build 0)  -->
<svg version="1.1" id="图层_1" xmlns="http://www.w3.org/2000/svg" xmlns:xlink="http://www.w3.org/1999/xlink" x="0px" y="0px"
	 viewBox="0 0 24 24" style="enable-background:new 0 0 24 24;" xml:space="preserve">
<style type="text/css">
	.st0{fill:#FAFAFA;}
</style>
<path class="st0" d="M19,2H5C3.3,2,2,3.3,2,5v14c0,1.7,1.3,3,3,3h14c1.7,0,3-1.3,3-3V5C22,3.3,20.7,2,19,2z M10,7c1.1,0,2,0.9,2,2
	s-0.9,2-2,2s-2-0.9-2-2S8.9,7,10,7z M7.5,20H5c-0.4,0-0.8-0.3-0.9-0.7l3.1-3.7c0.2-0.2,0.5-0.4,0.8-0.4c0.3,0,0.6,0.2,0.8,0.4l1,1.3
	L7.5,20z M20,19c0,0.6-0.4,1-1,1h-9l5.5-7.5c0.2-0.2,0.4-0.4,0.7-0.4c0.3,0,0.6,0.1,0.8,0.3l3,3.1V19z"/>
</svg>
