<?xml version="1.0" encoding="utf-8"?>
<!-- Generator: Adobe Illustrator 25.2.1, SVG Export Plug-In . SVG Version: 6.00 Build 0)  -->
<svg version="1.1" id="图层_1" xmlns="http://www.w3.org/2000/svg" xmlns:xlink="http://www.w3.org/1999/xlink" x="0px" y="0px"
	 viewBox="0 0 842 750" style="enable-background:new 0 0 842 750;" xml:space="preserve">
<style type="text/css">
	.st0{fill:#0A0A0A;}
</style>
<path class="st0" d="M835,270.9c0,236.3-214.5,251.5-413.8,473.1C221.5,522.4,7,507.2,7,270.9C7,170.6,48.5,83.2,124.7,37.7
	c2.7-0.9,4.9-2.2,7.6-3.6c27.6-14.3,58-23.2,90.1-26.8c9.4-0.9,18.7-1.3,28.5-1.3c113.3,0,169.9,123.4,169.9,123.4S482.8,6,591.1,6
	c9.8,0,19.2,0.4,28.5,1.3c32.1,3.6,62.4,12.9,90.1,26.8c2.7,1.3,4.9,2.7,7.6,3.6C793.5,83.2,835,170.6,835,270.9z"/>
</svg>
