<?xml version="1.0" encoding="utf-8"?>
<!-- Generator: Adobe Illustrator 25.2.1, SVG Export Plug-In . SVG Version: 6.00 Build 0)  -->
<svg version="1.1" id="图层_1" xmlns="http://www.w3.org/2000/svg" xmlns:xlink="http://www.w3.org/1999/xlink" x="0px" y="0px"
	 viewBox="0 0 48 48" style="enable-background:new 0 0 48 48;" xml:space="preserve">
<style type="text/css">
	.st0{fill:#FC85AA;}
</style>
<path class="st0" d="M37.6,8.3l-2.8,2.8C32.2,8,28.3,6,24,6c-7.7,0-14,6.3-14,14v4h8v3.9L7.7,38.2C6.7,37.1,6,35.6,6,34V20
	c0-9.9,8.1-18,18-18C29.4,2,34.3,4.4,37.6,8.3z"/>
<path class="st0" d="M18,32.1V40h-6c-0.6,0-1.1-0.1-1.7-0.2L18,32.1z"/>
<path class="st0" d="M42,20v14c0,3.3-2.7,6-6,6h-6V24h8v-4c0-2.3-0.5-4.4-1.5-6.3l2.9-2.9C41,13.4,42,16.6,42,20z"/>
<path class="st0" d="M41.9,7.1L7.1,41.9c-0.3,0.3-0.7,0.3-1,0l0,0c-0.3-0.3-0.3-0.7,0-1L40.9,6.1c0.3-0.3,0.7-0.3,1,0l0,0
	C42.2,6.4,42.2,6.8,41.9,7.1z"/>
</svg>
