<?xml version="1.0" encoding="utf-8"?>
<!-- Generator: Adobe Illustrator 25.2.1, SVG Export Plug-In . SVG Version: 6.00 Build 0)  -->
<svg version="1.1" id="图层_1" xmlns="http://www.w3.org/2000/svg" xmlns:xlink="http://www.w3.org/1999/xlink" x="0px" y="0px"
	 viewBox="0 0 593 940" style="enable-background:new 0 0 593 940;" xml:space="preserve">
<style type="text/css">
	.st0{fill:#FC85AA;stroke:#000000;stroke-width:1.9573;stroke-miterlimit:10;}
	.st1{fill:#FFFFFF;stroke:#000000;stroke-width:1.9573;stroke-miterlimit:10;}
	.st2{fill:#EAE9E8;stroke:#000000;stroke-width:1.9573;stroke-miterlimit:10;}
	.st3{fill:#B25D7C;}
	.st4{clip-path:url(#SVGID_2_);}
	.st5{fill:none;stroke:#FFFFFF;stroke-width:1.0177;stroke-miterlimit:10;}
	.st6{clip-path:url(#SVGID_4_);}
	.st7{stroke:#000000;stroke-width:1.9573;stroke-miterlimit:10;}
	.st8{fill:#C9233B;}
	.st9{fill:#F2E9D7;stroke:#000000;stroke-width:2.9359;stroke-miterlimit:10;}
	.st10{fill:#090A01;stroke:#FFFFFF;stroke-width:2.3232;stroke-miterlimit:10;}
	.st11{fill:#090A01;stroke:#FFFFFF;stroke-width:3.1467;stroke-miterlimit:10;}
	.st12{fill:none;stroke:#FFFFFF;stroke-width:3.1467;stroke-miterlimit:10;}
	.st13{clip-path:url(#SVGID_6_);}
	.st14{clip-path:url(#SVGID_8_);}
	.st15{fill:none;stroke:#000000;stroke-width:2.9359;stroke-miterlimit:10;}
	.st16{fill:#FFFFFF;stroke:#000000;stroke-width:3.507;stroke-miterlimit:10;}
	.st17{font-family:'AlibabaPuHuiTiM-GBpc-EUC-H';}
	.st18{font-size:60.2689px;}
	.st19{letter-spacing:7;}
</style>
<g>
	<path class="st0" d="M547.3,894.9l-6-7l0,0l-62.1-72.4c-1.2-9.3-2.4-18.8-3.7-28.3c3.6-11.8,8.1-26.8,10.8-36.2
		c5-17.3,5-47.5,5-47.5s-4.1-9-3.9-11.7s3.7-7.7,3.7-7.7s-2.9-5.7-3-8.5c0-2.8,4.6-14.8,4.5-18c-0.1-2.5-16.7-67.7-24-96.3l0,0
		c-2-8-3.4-13.2-3.4-13.2l44.9-215.6l0.1-0.3c0,0,19.5,13.5,34.5,75s40,221.8,43.5,251.6C591.8,688.7,547.3,894.9,547.3,894.9z"/>
	<path class="st1" d="M541.4,887.9L541.4,887.9l-3.6,12.8L524.9,888l-41.4-40.7l0,0c-1.4-10.3-2.8-21-4.2-31.9L541.4,887.9z"/>
	<path class="st2" d="M524.9,888c0,0-2.8,13.8-14.5,30c-6.6,9.1-11.9,13.2-15.4,15.1c-1.9-13.7-6.3-46.5-11.5-85.8L524.9,888z"/>
	<path class="st3" d="M513.7,669l-5,81l-13.1,14.9l-6.9,21.3l-13,1.6c0-0.2,0-0.4-0.1-0.6c3.6-11.8,8.1-26.8,10.8-36.2
		c5-17.3,5-47.5,5-47.5s-4.1-9-3.9-11.7s3.7-7.7,3.7-7.7s-2.9-5.7-3-8.5c0-2.8,4.6-14.8,4.5-18c-0.1-2.5-16.7-67.7-24-96.3l0,0
		c-2-8-3.4-13.2-3.4-13.2l19.3-92.6L513.7,669z"/>
	<g>
		<g>
			<g>
				<g>
					<defs>
						<path id="SVGID_1_" d="M547.3,894.9l-6-7l0,0l-62.1-72.4c-1.2-9.3-2.4-18.8-3.7-28.3c3.6-11.8,8.1-26.8,10.8-36.2
							c5-17.3,5-47.5,5-47.5s-4.1-9-3.9-11.7s3.7-7.7,3.7-7.7s-2.9-5.7-3-8.5c0-2.8,4.6-14.8,4.5-18c-0.1-2.5-16.7-67.7-24-96.3l0,0
							c-2-8-3.4-13.2-3.4-13.2l44.9-215.6l0.1-0.3c0,0,19.5,13.5,34.5,75s40,221.8,43.5,251.6C591.8,688.7,547.3,894.9,547.3,894.9z
							"/>
					</defs>
					<clipPath id="SVGID_2_">
						<use xlink:href="#SVGID_1_"  style="overflow:visible;"/>
					</clipPath>
					<g class="st4">
						<path class="st5" d="M516.4,319.8c0,0,66.5,261.9,66,350.3c-0.5,88.5-48.5,220.1-48.5,220.1"/>
						<path class="st5" d="M494.3,325.7c0,0,72.1,256.8,71.6,345.2c-0.5,88.5-48.2,218.2-48.2,218.2"/>
						<path class="st5" d="M472.2,331.5c0,0,77.8,251.7,77.3,340.2s-48,216.3-48,216.3"/>
						<path class="st5" d="M450.1,337.3c0,0,83.5,246.6,83,335.1s-47.7,214.4-47.7,214.4"/>
						<path class="st5" d="M428.1,343.1c0,0,89.2,241.6,88.7,330s-47.4,212.5-47.4,212.5"/>
						<path class="st5" d="M406,349c0,0,94.9,236.5,94.4,324.9s-47.2,210.6-47.2,210.6"/>
					</g>
				</g>
			</g>
		</g>
	</g>
</g>
<g>
	<path class="st0" d="M510.4,332.3l-0.1,0.3c0,0.1,0,0.1,0,0.2c-1.7,9.2-26.9,142.7-41.5,228.5l0,0c-5.9,34.5-10.1,61.3-10.4,69.3
		c-0.3,7.9,2.4,34.9,6.5,69.9l0,0c2.4,5.7,4.5,12,3.2,13.3c-0.2,0.2-0.8,0.4-1.6,0.6c2.7,22.6,5.8,47.7,9,72.6
		c1.2,9.5,2.4,19,3.7,28.3c1.4,10.9,2.8,21.6,4.2,31.9l0,0c5.2,39.3,9.6,72.1,11.5,85.8l0,0c0.6,4.4,0.9,6.9,0.9,6.9H104.6
		c0,0,5.4-100.2,19.5-185.9c7.2-42.1,28.2-78.8,29.5-112.4c1.4-33.6-49-306.8-49-306.8c-0.7-4.6,61.2-28.8,91.3-42
		c10.5-4.6,20.8-11.9,29.6-19.3l-43,54.3c0,0,10.5,70,39,155.4c17.9,53.6,48.5,107.7,68.8,140.7c12.1,19.6,20.6,31.7,20.6,31.7
		s7.4-10.6,18.1-27.3c21.9-34,57.6-93,72.4-137.7c5.3-16,10.5-33.3,15.3-50.6l2.2-7.9c14.2-51.5,24.7-99.2,24.7-99.2L392,273.3
		c5.8,4.5,13,9.5,21.7,14.8C451.1,309.2,510.4,332.3,510.4,332.3z"/>
	<path class="st3" d="M153.6,641.7c0.8-19.7-16.1-121.6-30.3-202.6l187.3,245.1l177.9-233.4c-6.8,37.4-14,77.5-19.7,110.6l0,0
		c-5.9,34.5-10.1,61.3-10.4,69.3c-0.3,7.9,2.4,34.9,6.5,69.9l0,0c2.4,5.7,4.5,12,3.2,13.3c-0.2,0.2-0.8,0.4-1.6,0.6
		c2.7,22.6,5.8,47.7,9,72.6c1.2,9.5,2.4,19,3.7,28.3c1.4,10.9,2.8,21.6,4.2,31.9l0,0c5.2,39.3,9.6,72.1,11.5,85.8l0,0
		c0.6,4.4,0.9,6.9,0.9,6.9H104.6c0,0,5.4-100.2,19.5-185.9C131.2,712,152.2,675.3,153.6,641.7z"/>
	<g>
		<g>
			<g>
				<g>
					<defs>
						<path id="SVGID_3_" d="M510.4,332.3l-0.1,0.3c0,0.1,0,0.1,0,0.2c-1.7,9.2-26.9,142.7-41.5,228.5l0,0
							c-5.9,34.5-10.1,61.3-10.4,69.3c-0.3,7.9,2.4,34.9,6.5,69.9l0,0c2.4,5.7,4.5,12,3.2,13.3c-0.2,0.2-0.8,0.4-1.6,0.6
							c2.7,22.6,5.8,47.7,9,72.6c1.2,9.5,2.4,19,3.7,28.3c1.4,10.9,2.8,21.6,4.2,31.9l0,0c5.2,39.3,9.6,72.1,11.5,85.8l0,0
							c0.6,4.4,0.9,6.9,0.9,6.9H104.6c0,0,5.4-100.2,19.5-185.9c7.2-42.1,28.2-78.8,29.5-112.4c1.4-33.6-49-306.8-49-306.8
							c-0.7-4.6,61.2-28.8,91.3-42c10.5-4.6,20.8-11.9,29.6-19.3l-43,54.3c0,0,10.5,70,39,155.4c17.9,53.6,48.5,107.7,68.8,140.7
							c12.1,19.6,20.6,31.7,20.6,31.7s7.4-10.6,18.1-27.3c21.9-34,57.6-93,72.4-137.7c5.3-16,10.5-33.3,15.3-50.6l2.2-7.9
							c14.2-51.5,24.7-99.2,24.7-99.2L392,273.3c5.8,4.5,13,9.5,21.7,14.8C451.1,309.2,510.4,332.3,510.4,332.3z"/>
					</defs>
					<clipPath id="SVGID_4_">
						<use xlink:href="#SVGID_3_"  style="overflow:visible;"/>
					</clipPath>
					<g class="st6">
						<path class="st5" d="M114.5,278.3c0,0,60.5,307.7,49.9,357.8C153.8,686.3,122.6,940,122.6,940"/>
						<path class="st5" d="M141.2,277.9c0,0,52.7,305.2,42.8,355.9S147.6,940,147.6,940"/>
						<path class="st5" d="M168,277.6c0,0,44.8,302.7,35.7,354c-9.1,51.3-31.1,308.5-31.1,308.5"/>
						<path class="st5" d="M194.8,277.2c0,0,37,300.2,28.6,352.1C215,681.1,197.7,940,197.7,940"/>
						<path class="st5" d="M221.6,276.9c0,0,29.2,297.7,21.5,350.1s-20.3,313-20.3,313"/>
						<path class="st5" d="M248.4,276.5c0,0,21.4,295.2,14.4,348.2S247.9,940,247.9,940"/>
						<path class="st5" d="M275.2,276.2c0,0,13.5,292.7,7.2,346.3s-9.5,317.6-9.5,317.6"/>
						<path class="st5" d="M302,275.8c0,0,5.7,290.2,0.1,344.4C296.5,674.3,298,940,298,940"/>
						<path class="st5" d="M328.8,275.5c0,0-2.1,287.7-7,342.4C316.9,672.6,323,940,323,940"/>
						<path class="st5" d="M355.6,275.1c0,0-9.9,285.3-14.1,340.5c-4.2,55.3,6.6,324.4,6.6,324.4"/>
						<path class="st5" d="M382.4,274.7c0,0-17.8,282.8-21.2,338.6c-3.4,55.8,12,326.7,12,326.7"/>
						<path class="st5" d="M409.2,274.4c0,0-25.6,280.3-28.3,336.6c-2.7,56.4,17.4,329,17.4,329"/>
						<path class="st5" d="M436,274c0,0-33.4,277.8-35.4,334.7s22.7,331.2,22.7,331.2"/>
						<path class="st5" d="M462.7,273.7c0,0-41.2,275.3-42.5,332.8C418.9,664,448.3,940,448.3,940"/>
						<path class="st5" d="M489.5,273.3c0,0-49.1,272.8-49.7,330.9S473.3,940,473.3,940"/>
					</g>
				</g>
			</g>
		</g>
	</g>
</g>
<g>
	<path class="st7" d="M365,385.2c-2.1,24.3-3.7,44.7-4.2,52.5c-1.7,25.4-31.7,190.6-31.7,190.6C318.4,645,311,655.7,311,655.7
		s-8.5-12.1-20.6-31.7c0,0-21.1-146.8-26.5-184.9c-1.8-12.3-4.3-35.8-6.8-62.1l33.4,72.6l19.1,41.6L337,439L365,385.2z"/>
	<path class="st8" d="M370.4,322.2c-0.3,3.7-0.6,7.4-1,11.2l-12,11.2l-24.7-21c0,0-11.7,14.2-11.7,15.6s14,24.6,13.7,40.6
		s2.1,59.2,2.1,59.2l-27.4,52.2l-19.1-41.6c0,0,1.2-61.1,1.8-69.5c0.6-8.3,12.2-37.8,12.2-37.8s-3-10.8-9.2-13.9
		c-2.1-1-8.8,0.6-10.5,1.4c-6.4,3.1-19.2,16.7-19.2,16.7l-12.6-12.4c-0.3-3-0.5-6-0.8-9l12.9,14.9c0,0,11.2-9.2,15.2-13.7
		c4.1-4.6,21.2-20.2,23.6-22c2.3-1.8,15.1-1.7,18.2-0.5s34.6,34.8,34.6,34.8L370.4,322.2z"/>
	<path class="st1" d="M304.3,342.3c0,0-11.6,29.5-12.2,37.8s-1.8,69.5-1.8,69.5L257,377l0,0c-1.4-13.9-2.7-28.6-4.1-42.8l12.6,12.4
		c0,0,12.7-13.5,19.2-16.7c1.6-0.8,8.3-2.4,10.5-1.4C301.4,331.5,304.3,342.3,304.3,342.3z"/>
	<path class="st1" d="M369.5,333.4c-1.5,17.4-3.1,35.5-4.4,51.8L336.9,439c0,0-2.4-43.3-2.1-59.2c0.2-16-13.7-39.2-13.7-40.6
		s11.7-15.6,11.7-15.6l24.7,21L369.5,333.4z"/>
	<path class="st1" d="M375.2,267.2L375.2,267.2c-1,11.7-2.8,32.1-4.8,55l-13.8,16.5c0,0-31.6-33.7-34.6-34.8
		c-3.1-1.2-15.8-1.3-18.2,0.5c-2.3,1.8-19.5,17.4-23.6,22S265,340.1,265,340.1l-12.9-14.9c-0.3-3-0.5-6-0.8-8.9
		c-0.2-1.7-0.3-3.5-0.5-5.2c-0.4-3.8-0.7-7.6-1-11.2c-0.1-1.5-0.3-3-0.4-4.5c0-0.2,0-0.5-0.1-0.7c-0.1-1-0.2-2.1-0.3-3.1
		c-0.1-1.2-0.2-2.3-0.3-3.5c-0.1-0.8-0.1-1.5-0.2-2.3c-0.1-1.5-0.3-3-0.4-4.4c-0.1-0.7-0.1-1.4-0.2-2.1c0-0.3-0.1-0.7-0.1-1
		c-0.1-0.7-0.1-1.4-0.2-2c-0.2-2.6-0.5-5.1-0.6-7.3c0-0.4-0.1-0.8-0.1-1.2c0-0.4-0.1-0.8-0.1-1.2c0-0.5-0.1-1-0.1-1.5
		c-0.1-0.7-0.1-1.4-0.2-2.1v-0.1c0-0.4-0.1-0.8-0.1-1.2c-0.1-0.6-0.1-1.2-0.2-1.8c0-0.2,0-0.5-0.1-0.7c0-0.1,0-0.2,0-0.3
		c0-0.3,0-0.6-0.1-0.9c0,0,0,0,0-0.1c0-0.3,0-0.6-0.1-0.9c-0.1-0.7-0.1-1.3-0.1-1.7c0-0.2,0-0.4,0-0.5l0,0c0-0.1,0-0.2,0-0.3
		c0-0.2,0-0.3,0-0.3c5.1-5.4,8-9.1,8-9.1s4,6,9.9,13.4c5,6.3,11.5,13.6,18.1,19c14.3,11.8,31.3,23,31.3,23s25.9-16.1,37.4-27
		c3.9-3.7,7.1-8,9.6-11.9c4.8-7.6,7-14.3,7-14.3l0,0c0.1,0.2,1.5,3.4,6.3,9l0,0c0.6,2.2,1,4.1,1.2,5.7
		C375.2,265.2,375.2,267,375.2,267.2z"/>
	<path class="st9" d="M360.1,261.6c-2.5,4-5.7,8.2-9.6,11.9c-11.5,10.9-37.4,27-37.4,27s-16.9-11.2-31.3-23
		c-6.6-5.4-13-12.7-18.1-19L360.1,261.6z"/>
	<ellipse class="st10" cx="326.1" cy="502.8" rx="3.1" ry="4.7"/>
	<ellipse class="st10" cx="326.1" cy="522.8" rx="3.1" ry="4.7"/>
	<polyline class="st11" points="369.5,376.8 305.5,498.9 305.5,521.2 	"/>
	<line class="st12" x1="309.5" y1="491.2" x2="251.6" y2="361.7"/>
	<path class="st0" d="M290.4,623.9c-20.4-33-51-87.1-68.8-140.7c-28.5-85.5-39-155.4-39-155.4l43-54.3c6.5-5.5,12.3-11,16.9-15.8
		l0,0c1.2-1.3,2.4-2.5,3.4-3.6c0,0,0,0.1,0,0.3c0,0.1,0,0.2,0,0.3l0,0c0,0.1,0,0.3,0,0.5c0,0.5,0.1,1,0.1,1.7c0,0.3,0,0.6,0.1,0.9
		l0,0v0.1c0,0.3,0,0.6,0.1,0.9c0,0.1,0,0.2,0,0.3c0,0.2,0,0.4,0.1,0.7c0,0.2,0,0.5,0.1,0.7c0,0.4,0.1,0.7,0.1,1.1s0.1,0.8,0.1,1.2
		c0.1,1.1,0.2,2.3,0.3,3.7c0.1,0.8,0.1,1.6,0.2,2.4c0,0.3,0,0.6,0.1,0.9c0.1,1,0.2,2,0.3,3.1c0.1,0.8,0.1,1.6,0.2,2.4
		c0.1,1.2,0.2,2.4,0.3,3.7c0.3,3.9,0.7,8.1,1.1,12.6c0.1,1,0.2,2,0.3,3.1c0.3,3.6,0.7,7.4,1,11.3c0.1,0.8,0.1,1.6,0.2,2.4
		c0.1,0.9,0.2,1.8,0.2,2.7c0.2,1.7,0.3,3.4,0.5,5.2c0.3,2.9,0.5,5.9,0.8,8.9s0.5,6,0.8,9c1.3,14.2,2.7,28.9,4.1,42.8l0,0
		c2.6,26.3,5.1,49.8,6.8,62.1C269.3,477.1,290.4,623.9,290.4,623.9z"/>
	<path class="st0" d="M443.6,333.1c0,0-10.6,47.6-24.7,99.2l-2.2,7.9c-4.8,17.2-10,34.6-15.3,50.6c-14.8,44.6-50.5,103.7-72.4,137.7
		c0,0,30.1-165.2,31.7-190.6c0.5-7.9,2.2-28.2,4.2-52.5c1.4-16.3,2.9-34.5,4.4-51.8c0.3-3.8,0.7-7.5,1-11.2c2-22.9,3.8-43.3,4.8-55
		l0,0c0.2-1.9,0.3-3.6,0.4-5l3.4,0.1c3.3,3.2,7.6,7,13,11.1L443.6,333.1z"/>
	<g>
		<g>
			<g>
				<g>
					<defs>
						<path id="SVGID_5_" d="M443.6,333.1c0,0-10.6,47.6-24.7,99.2l-2.2,7.9c-4.8,17.2-10,34.6-15.3,50.6
							c-14.8,44.6-50.5,103.7-72.4,137.7c0,0,30.1-165.2,31.7-190.6c0.5-7.9,2.2-28.2,4.2-52.5c1.4-16.3,2.9-34.5,4.4-51.8
							c0.3-3.8,0.7-7.5,1-11.2c2-22.9,3.8-43.3,4.8-55l0,0c0.2-1.9,0.3-3.6,0.4-5l3.4,0.1c3.3,3.2,7.6,7,13,11.1L443.6,333.1z"/>
					</defs>
					<clipPath id="SVGID_6_">
						<use xlink:href="#SVGID_5_"  style="overflow:visible;"/>
					</clipPath>
					<g class="st13">
						<path class="st5" d="M341.7,617.3c0,0,37.8-78.1,59.3-140.5s44.5-161.4,44.5-161.4"/>
						<path class="st5" d="M332.5,609.8c0,0,38.6-79.2,59.2-142.5s38.9-169.6,38.9-169.6"/>
						<path class="st5" d="M323.3,602.4c0,0,39.4-80.4,59.2-144.5c19.8-64.1,33.4-177.7,33.4-177.7"/>
						<path class="st5" d="M314.2,594.9c0,0,40.2-81.5,59.1-146.4s27.9-185.9,27.9-185.9"/>
						<path class="st5" d="M305,587.4c0,0,41.1-82.6,59.1-148.4s22.3-194,22.3-194"/>
					</g>
				</g>
			</g>
		</g>
	</g>
	<g>
		<g>
			<g>
				<g>
					<defs>
						<path id="SVGID_7_" d="M290.4,623.9c-20.4-33-51-87.1-68.8-140.7c-28.5-85.5-39-155.4-39-155.4l43-54.3
							c6.5-5.5,12.3-11,16.9-15.8l0,0c1.2-1.3,2.4-2.5,3.4-3.6c0,0,0,0.1,0,0.3c0,0.1,0,0.2,0,0.3l0,0c0,0.1,0,0.3,0,0.5
							c0,0.5,0.1,1,0.1,1.7c0,0.3,0,0.6,0.1,0.9l0,0v0.1c0,0.3,0,0.6,0.1,0.9c0,0.1,0,0.2,0,0.3c0,0.2,0,0.4,0.1,0.7
							c0,0.2,0,0.5,0.1,0.7c0,0.4,0.1,0.7,0.1,1.1s0.1,0.8,0.1,1.2c0.1,1.1,0.2,2.3,0.3,3.7c0.1,0.8,0.1,1.6,0.2,2.4
							c0,0.3,0,0.6,0.1,0.9c0.1,1,0.2,2,0.3,3.1c0.1,0.8,0.1,1.6,0.2,2.4c0.1,1.2,0.2,2.4,0.3,3.7c0.3,3.9,0.7,8.1,1.1,12.6
							c0.1,1,0.2,2,0.3,3.1c0.3,3.6,0.7,7.4,1,11.3c0.1,0.8,0.1,1.6,0.2,2.4c0.1,0.9,0.2,1.8,0.2,2.7c0.2,1.7,0.3,3.4,0.5,5.2
							c0.3,2.9,0.5,5.9,0.8,8.9s0.5,6,0.8,9c1.3,14.2,2.7,28.9,4.1,42.8l0,0c2.6,26.3,5.1,49.8,6.8,62.1
							C269.3,477.1,290.4,623.9,290.4,623.9z"/>
					</defs>
					<clipPath id="SVGID_8_">
						<use xlink:href="#SVGID_7_"  style="overflow:visible;"/>
					</clipPath>
					<g class="st14">
						<path class="st5" d="M286.3,617.3c0,0-37.8-78.1-59.3-140.5s-44.5-161.4-44.5-161.4"/>
						<path class="st5" d="M295.4,609.8c0,0-38.6-79.2-59.2-142.5s-38.9-169.6-38.9-169.6"/>
						<path class="st5" d="M304.6,602.4c0,0-39.4-80.4-59.2-144.5S212,280.2,212,280.2"/>
						<path class="st5" d="M313.8,594.9c0,0-40.2-81.5-59.1-146.4s-27.9-185.9-27.9-185.9"/>
						<path class="st5" d="M322.9,587.4c0,0-41.1-82.6-59.1-148.4s-22.3-194-22.3-194"/>
					</g>
				</g>
			</g>
		</g>
	</g>
	<polyline class="st15" points="186,329.6 209.9,335.1 246.4,288.2 	"/>
	<polyline class="st15" points="376.1,291.2 409.8,332.8 434.4,328.1 	"/>
</g>
<g>
	<polygon class="st1" points="463.1,426 462.2,432.9 416.7,440.2 418.9,432.3 	"/>
	<path class="st1" d="M468.1,713.9c-0.2,0.2-0.8,0.4-1.6,0.6c-8.4,2-45.8,2.8-52.4,4.6c-7.3,2-14.7-23.9-13.7-25.7
		c1-1.9,60-2.9,60-2.9s2.4,4.8,4.6,10.1l0,0C467.3,706.3,469.4,712.6,468.1,713.9z"/>
	<path class="st1" d="M457.3,686.6c-1.4,0.1-56.3,2.4-58,2.1c-1.6-0.4-0.6-4.1-0.6-4.1s57.7-1.9,58.6-1.9S458.6,686.5,457.3,686.6z"
		/>
	<path class="st1" d="M196.2,719.1c-7.2-2-51.5-2.8-54-5.2c-2.5-2.5,7.8-23.4,7.8-23.4s59,1,60,2.9
		C210.9,695.3,203.4,721.1,196.2,719.1z"/>
	<path class="st1" d="M211.1,688.6c-1.6,0.4-56.6-2-58-2.1s-0.9-3.9,0-3.9s58.6,1.9,58.6,1.9S212.7,688.3,211.1,688.6z"/>
</g>
<g>
	
		<rect x="229" y="82.6" transform="matrix(0.9989 4.733482e-02 -4.733482e-02 0.9989 8.6175 -14.5679)" class="st16" width="165.8" height="184.2"/>
	<text transform="matrix(0.9989 4.733482e-02 -4.733482e-02 0.9989 247.724 156.7654)"><tspan x="0" y="0" class="st17 st18 st19">看不</tspan><tspan x="0" y="74.2" class="st17 st18 st19">到我</tspan></text>
</g>
</svg>
