<?xml version="1.0" encoding="utf-8"?>
<!-- Generator: Adobe Illustrator 25.2.1, SVG Export Plug-In . SVG Version: 6.00 Build 0)  -->
<svg version="1.1" id="图层_1" xmlns="http://www.w3.org/2000/svg" xmlns:xlink="http://www.w3.org/1999/xlink" x="0px" y="0px"
	 viewBox="0 0 593 940" style="enable-background:new 0 0 593 940;" xml:space="preserve">
<style type="text/css">
	.st0{fill:#FC85AA;stroke:#000000;stroke-width:1.9573;stroke-miterlimit:10;}
	.st1{fill:#C3738E;}
	.st2{clip-path:url(#SVGID_2_);}
	.st3{fill:none;stroke:#FFFFFF;stroke-width:1.0177;stroke-miterlimit:10;}
</style>
<path class="st0" d="M115,613.7c2.3-17.2,59.5-236.2,47.8-260.1c-19.3-39.1-71.7-33.1-90.7,27C55.1,434.3,7.8,596,7.6,617.9
	c-0.2,22,18.2,42.7,46.5,41C82.3,657.2,111.8,638.4,115,613.7z"/>
<path class="st1" d="M147.9,468.6C134,534,116.3,604.2,115,613.6c-1.9,14.5-12.8,27-27.3,35.2L127,436.7L147.9,468.6z"/>
<g>
	<g>
		<g>
			<g>
				<defs>
					<path id="SVGID_1_" d="M115,613.7c2.3-17.2,59.5-236.2,47.8-260.1c-19.3-39.1-71.7-33.1-90.7,27C55.1,434.3,7.8,596,7.6,617.9
						c-0.2,22,18.2,42.7,46.5,41C82.3,657.2,111.8,638.4,115,613.7z"/>
				</defs>
				<clipPath id="SVGID_2_">
					<use xlink:href="#SVGID_1_"  style="overflow:visible;"/>
				</clipPath>
				<g class="st2">
					<path class="st3" d="M92.4,332.3c0,0-34.3,112.7-48.6,161.6S1.1,677.6,1.1,677.6"/>
					<path class="st3" d="M115.1,330.3c0-7.2-33.6,112.4-47.8,161.8C53.2,541,24.9,675.6,24.9,675.6"/>
					<path class="st3" d="M137.8,328.2c-0.1-14.5-32.9,112-47.1,162.1c-13.9,49-42.1,183.2-42.1,183.2"/>
					<path class="st3" d="M160.4,326.2c-0.1-21.7-32.1,111.6-46.4,162.3c-13.8,49-41.7,183-41.7,183"/>
					<path class="st3" d="M183.1,324.2c-0.2-29-31.4,111.3-45.6,162.6c-13.6,49.1-41.4,182.7-41.4,182.7"/>
				</g>
			</g>
		</g>
	</g>
</g>
</svg>
