<?xml version="1.0" encoding="utf-8"?>
<!-- Generator: Adobe Illustrator 25.2.1, SVG Export Plug-In . SVG Version: 6.00 Build 0)  -->
<svg version="1.1" id="图层_1" xmlns="http://www.w3.org/2000/svg" xmlns:xlink="http://www.w3.org/1999/xlink" x="0px" y="0px"
	 viewBox="0 0 593 940" style="enable-background:new 0 0 593 940;" xml:space="preserve">
<style type="text/css">
	.st0{fill:#FF9AB8;stroke:#000000;stroke-width:1.9573;stroke-miterlimit:10;}
	.st1{fill:#C3738E;}
	.st2{fill:#FFFFFF;stroke:#000000;stroke-width:1.9573;stroke-miterlimit:10;}
	.st3{fill:#EAE9E8;stroke:#000000;stroke-width:1.9573;stroke-miterlimit:10;}
	.st4{fill:none;stroke:#090A01;stroke-width:3.9145;stroke-linecap:round;stroke-linejoin:round;stroke-miterlimit:10;}
	.st5{clip-path:url(#SVGID_2_);}
	.st6{fill:none;stroke:#FFFFFF;stroke-width:1.0177;stroke-miterlimit:10;}
</style>
<path class="st0" d="M201.5,697.6c0,0-20.7,7.7-34.2,27.7c-10.5,16.5-4.7,60.2-4.7,60.2s-148.5-106-154.5-161c0,0,8.4-34.5,41.7-37
	s58.5,35.2,95.5,67.1C175,680.3,201.5,697.6,201.5,697.6z"/>
<path class="st1" d="M162.5,785.6c0,0-123-87.9-149.5-145.2c0.4-0.5,8.9-11,12.3-12.8c3.5-1.8,12.3,2.9,12.3,2.9l6-5.4
	c0,0,27.8,33.8,61.3,63.2s57.7,51,57.7,51c-2.4,13.4-1.5,30-0.7,39.3C162.2,782.9,162.5,785.6,162.5,785.6z"/>
<path class="st2" d="M218.2,710.9c0,0-0.9,0.2-2.5,1c-3.7,1.8-11.5,6.4-22.2,17.2c-7.3,7.4-11.7,22.2-14.3,35.7
	c-2.4,12.2-3.3,23.3-3.5,26.8c0,0.7-0.1,1.1-0.1,1.1l-13.8-14c-0.8-9.2-1.7-25.9,0.7-39.3c1-5.5,2.5-10.4,4.8-14
	c10-14.7,23.8-22.8,30.4-26.1L218.2,710.9z"/>
<path class="st2" d="M202.8,777.9l-27.1,13.7c0.2-3.4,1.1-14.6,3.5-26.8L202.8,777.9z"/>
<path class="st3" d="M330,758.1c0,0,0.2,4-2.4,9c-2.7,5-13.6,8.3-13.6,8.3s2,6.5,0.8,9.4c-2,4.9-6.9,8.2-6.9,8.2s2.5,5,0.2,9.4
	c-2.3,4.3-9,9.6-43,3.1c-18.5-2.5-44.7-18-44.7-18l-17.5-9.7l-23.6-13.1c2.6-13.5,7-28.3,14.3-35.7c10.6-10.8,18.4-15.4,22.2-17.2
	c1.7,1.2,8.5,5.7,14.8,6.2c7.3,0.5,20-3.8,37.5-0.5s24.8,10.4,39.7,11c14.9,0.7,28.4,14.9,29.8,19.5
	C338.8,752.9,330,758.1,330,758.1z"/>
<path class="st4" d="M258.5,789.9c0,0,14.9,0.2,25.3,2s23.2,1.8,23.2,1.8"/>
<path class="st4" d="M260,767.8c0,0,17.4-0.9,29.6,4s23.9,4.4,23.9,4.4"/>
<path class="st4" d="M270.2,741.7c0,0,19,7.1,32.7,8.8s26.3,7.3,26.3,7.3"/>
<g>
	<g>
		<g>
			<g>
				<g>
					<defs>
						<path id="SVGID_1_" d="M201.5,697.6c0,0-20.7,7.7-34.2,27.7c-10.5,16.5-4.7,60.2-4.7,60.2s-148.5-106-154.5-161
							c0,0,8.4-34.5,41.7-37s58.5,35.2,95.5,67.1C175,680.3,201.5,697.6,201.5,697.6z"/>
					</defs>
					<clipPath id="SVGID_2_">
						<use xlink:href="#SVGID_1_"  style="overflow:visible;"/>
					</clipPath>
					<g class="st5">
						<path class="st6" d="M11.2,616.2c0,0,19.6,51.8,71,95.8c33.6,32.7,79.1,59.9,79.1,59.9"/>
						<path class="st6" d="M23.4,602.4c0,0,21.2,51.8,72.6,95.8c33.6,32.7,79.1,59.9,79.1,59.9"/>
						<path class="st6" d="M35.6,588.6c0,0,22.9,51.8,74.3,95.8c33.6,32.7,79.1,59.9,79.1,59.9"/>
						<path class="st6" d="M47.8,574.7c0,0,24.5,51.8,75.9,95.8c33.6,32.7,79.1,59.9,79.1,59.9"/>
						<path class="st6" d="M59.9,560.9c0,0,26.1,51.8,77.5,95.8c33.6,32.7,79.1,59.9,79.1,59.9"/>
					</g>
				</g>
			</g>
		</g>
	</g>
</g>
</svg>
